<svg width="26" height="31" viewBox="0 0 26 31" xmlns="http://www.w3.org/2000/svg" fill="#7077A1">
<path d="M20.3919 7.93151C20.3919 3.86063 17.1344 0.559998 13.109 0.559998C9.08706 0.559998 5.82611 3.86063 5.82611 7.93151C5.82611 12.0025 9.08706 15.303 13.109 15.303C17.1346 15.303 20.3919 12.0025 20.3919 7.93151ZM7.64674 8.09099C7.64674 8.09099 7.43671 6.00002 8.92476 4.40521C9.97209 5.46784 13.109 8.09099 18.5713 8.09099C18.5713 11.1398 16.121 13.6197 13.109 13.6197C10.097 13.6197 7.64674 11.1396 7.64674 8.09099Z" fill="#7077A1"/>
<path d="M0.609009 20.9736V24.234V28.4514C0.609009 29.617 1.54286 30.56 2.6923 30.56H23.5257C24.6773 30.56 25.609 29.6168 25.609 28.4514V24.234V20.9736C25.609 18.6445 23.7454 16.7562 21.4424 16.7562H17.7485C17.4874 16.7562 17.1584 16.9346 17.0137 17.1544L13.3714 22.3652C13.2266 22.5852 12.9918 22.5852 12.847 22.3652L9.20462 17.1542C9.05983 16.9342 8.7308 16.7561 8.46974 16.7561H4.77564C2.4766 16.7561 0.609009 18.6445 0.609009 20.9736Z" fill="#7077A1"/>
<rect x="12.4722" y="9.44299" width="1.28728" height="1.1466" fill="#7077A1"/>
</svg>
